<?xml version="1.0" encoding="UTF-8" standalone="no"?>
<svg
   version="1.1"
   width="796.5pt"
   height="91pt"
   viewBox="0 0 796.5 91"
   id="svg138"
   xmlns="http://www.w3.org/2000/svg"
   xmlns:svg="http://www.w3.org/2000/svg">
  <defs
     id="defs142" />
  <g
     id="g136"
     transform="translate(-39.5,-39.500001)">
    <path
       transform="matrix(1,0,0,-1,0,170)"
       d="m 94,112 c 0,-9.941 -12.09,-18 -27,-18 -14.91,0 -27,8.059 -27,18 0,9.941 12.09,18 27,18 14.91,0 27,-8.059 27,-18"
       fill="#add8e6"
       id="path2" />
    <path
       transform="matrix(1,0,0,-1,0,170)"
       stroke-width="1"
       stroke-linecap="butt"
       stroke-miterlimit="10"
       stroke-linejoin="miter"
       fill="none"
       stroke="#000000"
       d="m 94,112 c 0,-9.941 -12.09,-18 -27,-18 -14.91,0 -27,8.059 -27,18 0,9.941 12.09,18 27,18 14.91,0 27,-8.059 27,-18"
       id="path4" />
    <text
       xml:space="preserve"
       transform="translate(0,170)"
       font-size="14px"
       font-family="TimesNewRomanPSMT"
       id="text8"><tspan
         y="-106.57422"
         x="63.625"
         id="tspan6">x</tspan></text>
    <path
       transform="matrix(1,0,0,-1,0,170)"
       d="m 130,130 h 64.75 V 94 H 130 Z"
       fill="#f08080"
       id="path10" />
    <path
       transform="matrix(1,0,0,-1,0,170)"
       stroke-width="1"
       stroke-linecap="butt"
       stroke-miterlimit="10"
       stroke-linejoin="miter"
       fill="none"
       stroke="#000000"
       d="m 130,130 h 64.75 V 94 H 130 Z"
       id="path12" />
    <text
       xml:space="preserve"
       transform="translate(0,170)"
       font-size="14px"
       font-family="TimesNewRomanPSMT"
       id="text16"><tspan
         y="-106.57422"
         x="138 149.998 155.98999 159.728 170.214 176.96201 179.94402"
         id="tspan14">Matmul1</tspan></text>
    <path
       transform="matrix(1,0,0,-1,0,170)"
       stroke-width="1"
       stroke-linecap="butt"
       stroke-miterlimit="10"
       stroke-linejoin="miter"
       fill="none"
       stroke="#000000"
       d="m 94.012,112 c 7.48,0 15.851,0 24.078,0"
       id="path18" />
    <path
       transform="matrix(1,0,0,-1,0,170)"
       d="m 118.008,115.5 10,-3.5 -10,-3.5 z m 0,0"
       id="path20" />
    <path
       transform="matrix(1,0,0,-1,0,170)"
       stroke-width="1"
       stroke-linecap="butt"
       stroke-miterlimit="10"
       stroke-linejoin="miter"
       fill="none"
       stroke="#000000"
       d="m 118.008,115.5 10,-3.5 -10,-3.5 z m 0,0"
       id="path22" />
    <path
       transform="matrix(1,0,0,-1,0,170)"
       d="m 284.75,112 c 0,-9.941 -12.09,-18 -27,-18 -14.91,0 -27,8.059 -27,18 0,9.941 12.09,18 27,18 14.91,0 27,-8.059 27,-18"
       fill="#add8e6"
       id="path24" />
    <path
       transform="matrix(1,0,0,-1,0,170)"
       stroke-width="1"
       stroke-linecap="butt"
       stroke-miterlimit="10"
       stroke-linejoin="miter"
       fill="none"
       stroke="#000000"
       d="m 284.75,112 c 0,-9.941 -12.09,-18 -27,-18 -14.91,0 -27,8.059 -27,18 0,9.941 12.09,18 27,18 14.91,0 27,-8.059 27,-18"
       id="path26" />
    <text
       xml:space="preserve"
       transform="translate(0,170)"
       font-size="14px"
       font-family="TimesNewRomanPSMT"
       id="text30"><tspan
         y="-106.57422"
         x="251.375 257.367"
         id="tspan28">z1</tspan></text>
    <path
       transform="matrix(1,0,0,-1,0,170)"
       stroke-width="1"
       stroke-linecap="butt"
       stroke-miterlimit="10"
       stroke-linejoin="miter"
       fill="none"
       stroke="#000000"
       d="m 195.25,112 c 7.578,0 15.734,0 23.555,0"
       id="path32" />
    <path
       transform="matrix(1,0,0,-1,0,170)"
       d="m 218.781,115.5 10,-3.5 -10,-3.5 z m 0,0"
       id="path34" />
    <path
       transform="matrix(1,0,0,-1,0,170)"
       stroke-width="1"
       stroke-linecap="butt"
       stroke-miterlimit="10"
       stroke-linejoin="miter"
       fill="none"
       stroke="#000000"
       d="m 218.781,115.5 10,-3.5 -10,-3.5 z m 0,0"
       id="path36" />
    <path
       transform="matrix(1,0,0,-1,0,170)"
       d="m 320.75,130 h 54 V 94 h -54 z"
       fill="#add8e6"
       id="path38" />
    <path
       transform="matrix(1,0,0,-1,0,170)"
       stroke-width="1"
       stroke-linecap="butt"
       stroke-miterlimit="10"
       stroke-linejoin="miter"
       fill="none"
       stroke="#000000"
       d="m 320.75,130 h 54 V 94 h -54 z"
       id="path40" />
    <text
       xml:space="preserve"
       transform="translate(0,170)"
       font-size="14px"
       font-family="TimesNewRomanPSMT"
       id="text44"><tspan
         y="-106.57422"
         x="333.5 343.24399 349.99197 353.72995"
         id="tspan42">ActF</tspan></text>
    <path
       transform="matrix(1,0,0,-1,0,170)"
       stroke-width="1"
       stroke-linecap="butt"
       stroke-miterlimit="10"
       stroke-linejoin="miter"
       fill="none"
       stroke="#000000"
       d="m 285.152,112 c 7.485,0 15.782,0 23.797,0"
       id="path46" />
    <path
       transform="matrix(1,0,0,-1,0,170)"
       d="m 308.852,115.5 10,-3.5 -10,-3.5 z m 0,0"
       id="path48" />
    <path
       transform="matrix(1,0,0,-1,0,170)"
       stroke-width="1"
       stroke-linecap="butt"
       stroke-miterlimit="10"
       stroke-linejoin="miter"
       fill="none"
       stroke="#000000"
       d="m 308.852,115.5 10,-3.5 -10,-3.5 z m 0,0"
       id="path50" />
    <path
       transform="matrix(1,0,0,-1,0,170)"
       d="m 464.75,112 c 0,-9.941 -12.09,-18 -27,-18 -14.91,0 -27,8.059 -27,18 0,9.941 12.09,18 27,18 14.91,0 27,-8.059 27,-18"
       fill="#add8e6"
       id="path52" />
    <path
       transform="matrix(1,0,0,-1,0,170)"
       stroke-width="1"
       stroke-linecap="butt"
       stroke-miterlimit="10"
       stroke-linejoin="miter"
       fill="none"
       stroke="#000000"
       d="m 464.75,112 c 0,-9.941 -12.09,-18 -27,-18 -14.91,0 -27,8.059 -27,18 0,9.941 12.09,18 27,18 14.91,0 27,-8.059 27,-18"
       id="path54" />
    <text
       xml:space="preserve"
       transform="translate(0,170)"
       font-size="14px"
       font-family="TimesNewRomanPSMT"
       id="text58"><tspan
         y="-106.57422"
         x="434.75"
         id="tspan56">a</tspan></text>
    <path
       transform="matrix(1,0,0,-1,0,170)"
       stroke-width="1"
       stroke-linecap="butt"
       stroke-miterlimit="10"
       stroke-linejoin="miter"
       fill="none"
       stroke="#000000"
       d="m 375.152,112 c 7.485,0 15.782,0 23.797,0"
       id="path60" />
    <path
       transform="matrix(1,0,0,-1,0,170)"
       d="m 398.852,115.5 10,-3.5 -10,-3.5 z m 0,0"
       id="path62" />
    <path
       transform="matrix(1,0,0,-1,0,170)"
       stroke-width="1"
       stroke-linecap="butt"
       stroke-miterlimit="10"
       stroke-linejoin="miter"
       fill="none"
       stroke="#000000"
       d="m 398.852,115.5 10,-3.5 -10,-3.5 z m 0,0"
       id="path64" />
    <path
       transform="matrix(1,0,0,-1,0,170)"
       d="M 500.75,130 H 565.5 V 94 h -64.75 z"
       fill="#f08080"
       id="path66" />
    <path
       transform="matrix(1,0,0,-1,0,170)"
       stroke-width="1"
       stroke-linecap="butt"
       stroke-miterlimit="10"
       stroke-linejoin="miter"
       fill="none"
       stroke="#000000"
       d="M 500.75,130 H 565.5 V 94 h -64.75 z"
       id="path68" />
    <text
       xml:space="preserve"
       transform="translate(0,170)"
       font-size="14px"
       font-family="TimesNewRomanPSMT"
       id="text72"><tspan
         y="-106.57422"
         x="508.75 520.74799 526.73999 530.47797 540.96393 547.71191 550.69391"
         id="tspan70">Matmul2</tspan></text>
    <path
       transform="matrix(1,0,0,-1,0,170)"
       stroke-width="1"
       stroke-linecap="butt"
       stroke-miterlimit="10"
       stroke-linejoin="miter"
       fill="none"
       stroke="#000000"
       d="m 464.762,112 c 7.48,0 15.851,0 24.078,0"
       id="path74" />
    <path
       transform="matrix(1,0,0,-1,0,170)"
       d="m 488.758,115.5 10,-3.5 -10,-3.5 z m 0,0"
       id="path76" />
    <path
       transform="matrix(1,0,0,-1,0,170)"
       stroke-width="1"
       stroke-linecap="butt"
       stroke-miterlimit="10"
       stroke-linejoin="miter"
       fill="none"
       stroke="#000000"
       d="m 488.758,115.5 10,-3.5 -10,-3.5 z m 0,0"
       id="path78" />
    <path
       transform="matrix(1,0,0,-1,0,170)"
       d="m 655.5,112 c 0,-9.941 -12.09,-18 -27,-18 -14.91,0 -27,8.059 -27,18 0,9.941 12.09,18 27,18 14.91,0 27,-8.059 27,-18"
       fill="#add8e6"
       id="path80" />
    <path
       transform="matrix(1,0,0,-1,0,170)"
       stroke-width="1"
       stroke-linecap="butt"
       stroke-miterlimit="10"
       stroke-linejoin="miter"
       fill="none"
       stroke="#000000"
       d="m 655.5,112 c 0,-9.941 -12.09,-18 -27,-18 -14.91,0 -27,8.059 -27,18 0,9.941 12.09,18 27,18 14.91,0 27,-8.059 27,-18"
       id="path82" />
    <text
       xml:space="preserve"
       transform="translate(0,170)"
       font-size="14px"
       font-family="TimesNewRomanPSMT"
       id="text86"><tspan
         y="-106.57422"
         x="622.125 628.117"
         id="tspan84">z2</tspan></text>
    <path
       transform="matrix(1,0,0,-1,0,170)"
       stroke-width="1"
       stroke-linecap="butt"
       stroke-miterlimit="10"
       stroke-linejoin="miter"
       fill="none"
       stroke="#000000"
       d="m 566,112 c 7.578,0 15.734,0 23.555,0"
       id="path88" />
    <path
       transform="matrix(1,0,0,-1,0,170)"
       d="m 589.531,115.5 10,-3.5 -10,-3.5 z m 0,0"
       id="path90" />
    <path
       transform="matrix(1,0,0,-1,0,170)"
       stroke-width="1"
       stroke-linecap="butt"
       stroke-miterlimit="10"
       stroke-linejoin="miter"
       fill="none"
       stroke="#000000"
       d="m 589.531,115.5 10,-3.5 -10,-3.5 z m 0,0"
       id="path92" />
    <path
       transform="matrix(1,0,0,-1,0,170)"
       d="m 691.5,103 h 54 V 67 h -54 z"
       fill="#add8e6"
       id="path94" />
    <path
       transform="matrix(1,0,0,-1,0,170)"
       stroke-width="1"
       stroke-linecap="butt"
       stroke-miterlimit="10"
       stroke-linejoin="miter"
       fill="none"
       stroke="#000000"
       d="m 691.5,103 h 54 V 67 h -54 z"
       id="path96" />
    <text
       xml:space="preserve"
       transform="translate(0,170)"
       font-size="14px"
       font-family="TimesNewRomanPSMT"
       id="text100"><tspan
         y="-79.574219"
         x="700.5 708.73199 716.23602 722.242 728.23401"
         id="tspan98">LossF</tspan></text>
    <path
       transform="matrix(1,0,0,-1,0,170)"
       stroke-width="1"
       stroke-linecap="butt"
       stroke-miterlimit="10"
       stroke-linejoin="miter"
       fill="none"
       stroke="#000000"
       d="m 653.547,104.621 c 8.25,-2.531 17.683,-5.426 26.73,-8.199"
       id="path102" />
    <path
       transform="matrix(1,0,0,-1,0,170)"
       d="m 681.027,99.852 8.536,-6.278 -10.59,-0.414 z m 0,0"
       id="path104" />
    <path
       transform="matrix(1,0,0,-1,0,170)"
       stroke-width="1"
       stroke-linecap="butt"
       stroke-miterlimit="10"
       stroke-linejoin="miter"
       fill="none"
       stroke="#000000"
       d="m 681.027,99.852 8.536,-6.278 -10.59,-0.414 z m 0,0"
       id="path106" />
    <path
       transform="matrix(1,0,0,-1,0,170)"
       d="m 835.5,85 c 0,-9.941 -12.09,-18 -27,-18 -14.91,0 -27,8.059 -27,18 0,9.941 12.09,18 27,18 14.91,0 27,-8.059 27,-18"
       fill="#add8e6"
       id="path108" />
    <path
       transform="matrix(1,0,0,-1,0,170)"
       stroke-width="1"
       stroke-linecap="butt"
       stroke-miterlimit="10"
       stroke-linejoin="miter"
       fill="none"
       stroke="#000000"
       d="m 835.5,85 c 0,-9.941 -12.09,-18 -27,-18 -14.91,0 -27,8.059 -27,18 0,9.941 12.09,18 27,18 14.91,0 27,-8.059 27,-18"
       id="path110" />
    <text
       xml:space="preserve"
       transform="translate(0,170)"
       font-size="14px"
       font-family="TimesNewRomanPSMT"
       id="text114"><tspan
         y="-79.574219"
         x="797.25 800.23199 807.73602 813.742"
         id="tspan112">loss</tspan></text>
    <path
       transform="matrix(1,0,0,-1,0,170)"
       stroke-width="1"
       stroke-linecap="butt"
       stroke-miterlimit="10"
       stroke-linejoin="miter"
       fill="none"
       stroke="#000000"
       d="m 745.902,85 c 7.485,0 15.782,0 23.797,0"
       id="path116" />
    <path
       transform="matrix(1,0,0,-1,0,170)"
       d="m 769.602,88.5 10,-3.5 -10,-3.5 z m 0,0"
       id="path118" />
    <path
       transform="matrix(1,0,0,-1,0,170)"
       stroke-width="1"
       stroke-linecap="butt"
       stroke-miterlimit="10"
       stroke-linejoin="miter"
       fill="none"
       stroke="#000000"
       d="m 769.602,88.5 10,-3.5 -10,-3.5 z m 0,0"
       id="path120" />
    <path
       transform="matrix(1,0,0,-1,0,170)"
       d="m 655.5,58 c 0,-9.941 -12.09,-18 -27,-18 -14.91,0 -27,8.059 -27,18 0,9.941 12.09,18 27,18 14.91,0 27,-8.059 27,-18"
       fill="#add8e6"
       id="path122" />
    <path
       transform="matrix(1,0,0,-1,0,170)"
       stroke-width="1"
       stroke-linecap="butt"
       stroke-miterlimit="10"
       stroke-linejoin="miter"
       fill="none"
       stroke="#000000"
       d="m 655.5,58 c 0,-9.941 -12.09,-18 -27,-18 -14.91,0 -27,8.059 -27,18 0,9.941 12.09,18 27,18 14.91,0 27,-8.059 27,-18"
       id="path124" />
    <text
       xml:space="preserve"
       transform="translate(0,170)"
       font-size="14px"
       font-family="TimesNewRomanPSMT"
       id="text128"><tspan
         y="-52.574219"
         x="625.125"
         id="tspan126">y</tspan></text>
    <path
       transform="matrix(1,0,0,-1,0,170)"
       stroke-width="1"
       stroke-linecap="butt"
       stroke-miterlimit="10"
       stroke-linejoin="miter"
       fill="none"
       stroke="#000000"
       d="m 653.547,65.379 c 8.25,2.531 17.683,5.426 26.73,8.199"
       id="path130" />
    <path
       transform="matrix(1,0,0,-1,0,170)"
       d="m 678.973,76.84 10.59,-0.414 -8.536,-6.278 z m 0,0"
       id="path132" />
    <path
       transform="matrix(1,0,0,-1,0,170)"
       stroke-width="1"
       stroke-linecap="butt"
       stroke-miterlimit="10"
       stroke-linejoin="miter"
       fill="none"
       stroke="#000000"
       d="m 678.973,76.84 10.59,-0.414 -8.536,-6.278 z m 0,0"
       id="path134" />
  </g>
</svg>
