<?xml version="1.0" encoding="UTF-8" standalone="no"?>
<svg
   viewBox="0 0 1062 121.33333"
   height="121.33333"
   width="1062"
   xml:space="preserve"
   id="svg2"
   version="1.1"
   xmlns="http://www.w3.org/2000/svg"
   xmlns:svg="http://www.w3.org/2000/svg"
   xmlns:rdf="http://www.w3.org/1999/02/22-rdf-syntax-ns#"
   xmlns:cc="http://creativecommons.org/ns#"
   xmlns:dc="http://purl.org/dc/elements/1.1/"><metadata
     id="metadata8"><rdf:RDF><cc:Work
         rdf:about=""><dc:format>image/svg+xml</dc:format><dc:type
           rdf:resource="http://purl.org/dc/dcmitype/StillImage" /></cc:Work></rdf:RDF></metadata><defs
     id="defs6" /><g
     transform="matrix(1.3333333,0,0,-1.3333333,-52.666664,173.99999)"
     id="g10"><g
       id="g12"><path
   id="path14"
   style="fill:#f08080;fill-opacity:1;fill-rule:nonzero;stroke:none"
   d="m 94,112 c 0,-9.941 -12.09,-18 -27,-18 -14.91,0 -27,8.059 -27,18 0,9.941 12.09,18 27,18 14.91,0 27,-8.059 27,-18" /><path
   id="path16"
   style="fill:none;stroke:#000000;stroke-width:1;stroke-linecap:butt;stroke-linejoin:miter;stroke-miterlimit:10;stroke-dasharray:none;stroke-opacity:1"
   d="m 94,112 c 0,-9.941 -12.09,-18 -27,-18 -14.91,0 -27,8.059 -27,18 0,9.941 12.09,18 27,18 14.91,0 27,-8.059 27,-18" /><text
   id="text20"
   style="font-variant:normal;font-weight:normal;font-size:14px;font-family:'Times New Roman';-inkscape-font-specification:TimesNewRomanPSMT;writing-mode:lr-tb;fill:#000000;fill-opacity:1;fill-rule:nonzero;stroke:none"
   transform="matrix(1,0,0,-1,63.625,106.57422)"><tspan
     id="tspan18"
     y="0"
     x="0">x</tspan></text>
<path
   id="path22"
   style="fill:#add8e6;fill-opacity:1;fill-rule:nonzero;stroke:#000000;stroke-width:1;stroke-linecap:butt;stroke-linejoin:miter;stroke-miterlimit:10;stroke-dasharray:none;stroke-opacity:1"
   d="m 130,130 h 64.75 V 94 H 130 Z" /><text
   id="text26"
   style="font-variant:normal;font-weight:normal;font-size:14px;font-family:'Times New Roman';-inkscape-font-specification:TimesNewRomanPSMT;writing-mode:lr-tb;fill:#000000;fill-opacity:1;fill-rule:nonzero;stroke:none"
   transform="matrix(1,0,0,-1,138,106.57422)"><tspan
     id="tspan24"
     y="0"
     x="0 11.998 17.99 21.728001 32.214001 38.962002 41.944">Matmul1</tspan></text>
<path
   id="path28"
   style="fill:none;stroke:#000000;stroke-width:1;stroke-linecap:butt;stroke-linejoin:miter;stroke-miterlimit:10;stroke-dasharray:none;stroke-opacity:1"
   d="m 94.012,112 c 7.48,0 15.851,0 24.078,0" /><path
   id="path30"
   style="fill:#000000;fill-opacity:1;fill-rule:nonzero;stroke:#000000;stroke-width:1;stroke-linecap:butt;stroke-linejoin:miter;stroke-miterlimit:10;stroke-dasharray:none;stroke-opacity:1"
   d="m 118.008,115.5 10,-3.5 -10,-3.5 z" /><path
   id="path32"
   style="fill:#add8e6;fill-opacity:1;fill-rule:nonzero;stroke:none"
   d="m 284.75,112 c 0,-9.941 -12.09,-18 -27,-18 -14.91,0 -27,8.059 -27,18 0,9.941 12.09,18 27,18 14.91,0 27,-8.059 27,-18" /><path
   id="path34"
   style="fill:none;stroke:#000000;stroke-width:1;stroke-linecap:butt;stroke-linejoin:miter;stroke-miterlimit:10;stroke-dasharray:none;stroke-opacity:1"
   d="m 284.75,112 c 0,-9.941 -12.09,-18 -27,-18 -14.91,0 -27,8.059 -27,18 0,9.941 12.09,18 27,18 14.91,0 27,-8.059 27,-18" /><text
   id="text38"
   style="font-variant:normal;font-weight:normal;font-size:14px;font-family:'Times New Roman';-inkscape-font-specification:TimesNewRomanPSMT;writing-mode:lr-tb;fill:#000000;fill-opacity:1;fill-rule:nonzero;stroke:none"
   transform="matrix(1,0,0,-1,251.375,106.57422)"><tspan
     id="tspan36"
     y="0"
     x="0 5.9920001">z1</tspan></text>
<path
   id="path40"
   style="fill:none;stroke:#000000;stroke-width:1;stroke-linecap:butt;stroke-linejoin:miter;stroke-miterlimit:10;stroke-dasharray:none;stroke-opacity:1"
   d="m 195.25,112 c 7.578,0 15.734,0 23.555,0" /><path
   id="path42"
   style="fill:#000000;fill-opacity:1;fill-rule:nonzero;stroke:#000000;stroke-width:1;stroke-linecap:butt;stroke-linejoin:miter;stroke-miterlimit:10;stroke-dasharray:none;stroke-opacity:1"
   d="m 218.781,115.5 10,-3.5 -10,-3.5 z" /><path
   id="path44"
   style="fill:#add8e6;fill-opacity:1;fill-rule:nonzero;stroke:#000000;stroke-width:1;stroke-linecap:butt;stroke-linejoin:miter;stroke-miterlimit:10;stroke-dasharray:none;stroke-opacity:1"
   d="m 320.75,130 h 54 V 94 h -54 z" /><text
   id="text48"
   style="font-variant:normal;font-weight:normal;font-size:14px;font-family:'Times New Roman';-inkscape-font-specification:TimesNewRomanPSMT;writing-mode:lr-tb;fill:#000000;fill-opacity:1;fill-rule:nonzero;stroke:none"
   transform="matrix(1,0,0,-1,333.5,106.57422)"><tspan
     id="tspan46"
     y="0"
     x="0 9.7440004 16.492001 20.23">ActF</tspan></text>
<path
   id="path50"
   style="fill:none;stroke:#000000;stroke-width:1;stroke-linecap:butt;stroke-linejoin:miter;stroke-miterlimit:10;stroke-dasharray:none;stroke-opacity:1"
   d="m 285.152,112 c 7.485,0 15.782,0 23.797,0" /><path
   id="path52"
   style="fill:#000000;fill-opacity:1;fill-rule:nonzero;stroke:#000000;stroke-width:1;stroke-linecap:butt;stroke-linejoin:miter;stroke-miterlimit:10;stroke-dasharray:none;stroke-opacity:1"
   d="m 308.852,115.5 10,-3.5 -10,-3.5 z" /><path
   id="path54"
   style="fill:#add8e6;fill-opacity:1;fill-rule:nonzero;stroke:none"
   d="m 464.75,112 c 0,-9.941 -12.09,-18 -27,-18 -14.91,0 -27,8.059 -27,18 0,9.941 12.09,18 27,18 14.91,0 27,-8.059 27,-18" /><path
   id="path56"
   style="fill:none;stroke:#000000;stroke-width:1;stroke-linecap:butt;stroke-linejoin:miter;stroke-miterlimit:10;stroke-dasharray:none;stroke-opacity:1"
   d="m 464.75,112 c 0,-9.941 -12.09,-18 -27,-18 -14.91,0 -27,8.059 -27,18 0,9.941 12.09,18 27,18 14.91,0 27,-8.059 27,-18" /><text
   id="text60"
   style="font-variant:normal;font-weight:normal;font-size:14px;font-family:'Times New Roman';-inkscape-font-specification:TimesNewRomanPSMT;writing-mode:lr-tb;fill:#000000;fill-opacity:1;fill-rule:nonzero;stroke:none"
   transform="matrix(1,0,0,-1,434.75,106.57422)"><tspan
     id="tspan58"
     y="0"
     x="0">a</tspan></text>
<path
   id="path62"
   style="fill:none;stroke:#000000;stroke-width:1;stroke-linecap:butt;stroke-linejoin:miter;stroke-miterlimit:10;stroke-dasharray:none;stroke-opacity:1"
   d="m 375.152,112 c 7.485,0 15.782,0 23.797,0" /><path
   id="path64"
   style="fill:#000000;fill-opacity:1;fill-rule:nonzero;stroke:#000000;stroke-width:1;stroke-linecap:butt;stroke-linejoin:miter;stroke-miterlimit:10;stroke-dasharray:none;stroke-opacity:1"
   d="m 398.852,115.5 10,-3.5 -10,-3.5 z" /><path
   id="path66"
   style="fill:#add8e6;fill-opacity:1;fill-rule:nonzero;stroke:#000000;stroke-width:1;stroke-linecap:butt;stroke-linejoin:miter;stroke-miterlimit:10;stroke-dasharray:none;stroke-opacity:1"
   d="M 500.75,130 H 565.5 V 94 h -64.75 z" /><text
   id="text70"
   style="font-variant:normal;font-weight:normal;font-size:14px;font-family:'Times New Roman';-inkscape-font-specification:TimesNewRomanPSMT;writing-mode:lr-tb;fill:#000000;fill-opacity:1;fill-rule:nonzero;stroke:none"
   transform="matrix(1,0,0,-1,508.75,106.57422)"><tspan
     id="tspan68"
     y="0"
     x="0 11.998 17.99 21.728001 32.214001 38.962002 41.944">Matmul2</tspan></text>
<path
   id="path72"
   style="fill:none;stroke:#000000;stroke-width:1;stroke-linecap:butt;stroke-linejoin:miter;stroke-miterlimit:10;stroke-dasharray:none;stroke-opacity:1"
   d="m 464.762,112 c 7.48,0 15.851,0 24.078,0" /><path
   id="path74"
   style="fill:#000000;fill-opacity:1;fill-rule:nonzero;stroke:#000000;stroke-width:1;stroke-linecap:butt;stroke-linejoin:miter;stroke-miterlimit:10;stroke-dasharray:none;stroke-opacity:1"
   d="m 488.758,115.5 10,-3.5 -10,-3.5 z" /><path
   id="path76"
   style="fill:#add8e6;fill-opacity:1;fill-rule:nonzero;stroke:none"
   d="m 655.5,112 c 0,-9.941 -12.09,-18 -27,-18 -14.91,0 -27,8.059 -27,18 0,9.941 12.09,18 27,18 14.91,0 27,-8.059 27,-18" /><path
   id="path78"
   style="fill:none;stroke:#000000;stroke-width:1;stroke-linecap:butt;stroke-linejoin:miter;stroke-miterlimit:10;stroke-dasharray:none;stroke-opacity:1"
   d="m 655.5,112 c 0,-9.941 -12.09,-18 -27,-18 -14.91,0 -27,8.059 -27,18 0,9.941 12.09,18 27,18 14.91,0 27,-8.059 27,-18" /><text
   id="text82"
   style="font-variant:normal;font-weight:normal;font-size:14px;font-family:'Times New Roman';-inkscape-font-specification:TimesNewRomanPSMT;writing-mode:lr-tb;fill:#000000;fill-opacity:1;fill-rule:nonzero;stroke:none"
   transform="matrix(1,0,0,-1,622.125,106.57422)"><tspan
     id="tspan80"
     y="0"
     x="0 5.9920001">z2</tspan></text>
<path
   id="path84"
   style="fill:none;stroke:#000000;stroke-width:1;stroke-linecap:butt;stroke-linejoin:miter;stroke-miterlimit:10;stroke-dasharray:none;stroke-opacity:1"
   d="m 566,112 c 7.578,0 15.734,0 23.555,0" /><path
   id="path86"
   style="fill:#000000;fill-opacity:1;fill-rule:nonzero;stroke:#000000;stroke-width:1;stroke-linecap:butt;stroke-linejoin:miter;stroke-miterlimit:10;stroke-dasharray:none;stroke-opacity:1"
   d="m 589.531,115.5 10,-3.5 -10,-3.5 z" /><path
   id="path88"
   style="fill:#add8e6;fill-opacity:1;fill-rule:nonzero;stroke:#000000;stroke-width:1;stroke-linecap:butt;stroke-linejoin:miter;stroke-miterlimit:10;stroke-dasharray:none;stroke-opacity:1"
   d="m 691.5,103 h 54 V 67 h -54 z" /><text
   id="text92"
   style="font-variant:normal;font-weight:normal;font-size:14px;font-family:'Times New Roman';-inkscape-font-specification:TimesNewRomanPSMT;writing-mode:lr-tb;fill:#000000;fill-opacity:1;fill-rule:nonzero;stroke:none"
   transform="matrix(1,0,0,-1,700.5,79.574219)"><tspan
     id="tspan90"
     y="0"
     x="0 8.2320004 15.736 21.742001 27.733999">LossF</tspan></text>
<path
   id="path94"
   style="fill:none;stroke:#000000;stroke-width:1;stroke-linecap:butt;stroke-linejoin:miter;stroke-miterlimit:10;stroke-dasharray:none;stroke-opacity:1"
   d="m 653.547,104.621 c 8.25,-2.531 17.683,-5.426 26.73,-8.199" /><path
   id="path96"
   style="fill:#000000;fill-opacity:1;fill-rule:nonzero;stroke:#000000;stroke-width:1;stroke-linecap:butt;stroke-linejoin:miter;stroke-miterlimit:10;stroke-dasharray:none;stroke-opacity:1"
   d="m 681.027,99.852 8.536,-6.278 -10.59,-0.414 z" /><path
   id="path98"
   style="fill:#add8e6;fill-opacity:1;fill-rule:nonzero;stroke:none"
   d="m 835.5,85 c 0,-9.941 -12.09,-18 -27,-18 -14.91,0 -27,8.059 -27,18 0,9.941 12.09,18 27,18 14.91,0 27,-8.059 27,-18" /><path
   id="path100"
   style="fill:none;stroke:#000000;stroke-width:1;stroke-linecap:butt;stroke-linejoin:miter;stroke-miterlimit:10;stroke-dasharray:none;stroke-opacity:1"
   d="m 835.5,85 c 0,-9.941 -12.09,-18 -27,-18 -14.91,0 -27,8.059 -27,18 0,9.941 12.09,18 27,18 14.91,0 27,-8.059 27,-18" /><text
   id="text104"
   style="font-variant:normal;font-weight:normal;font-size:14px;font-family:'Times New Roman';-inkscape-font-specification:TimesNewRomanPSMT;writing-mode:lr-tb;fill:#000000;fill-opacity:1;fill-rule:nonzero;stroke:none"
   transform="matrix(1,0,0,-1,797.25,79.574219)"><tspan
     id="tspan102"
     y="0"
     x="0 2.9820001 10.486 16.492001">loss</tspan></text>
<path
   id="path106"
   style="fill:none;stroke:#000000;stroke-width:1;stroke-linecap:butt;stroke-linejoin:miter;stroke-miterlimit:10;stroke-dasharray:none;stroke-opacity:1"
   d="m 745.902,85 c 7.485,0 15.782,0 23.797,0" /><path
   id="path108"
   style="fill:#000000;fill-opacity:1;fill-rule:nonzero;stroke:#000000;stroke-width:1;stroke-linecap:butt;stroke-linejoin:miter;stroke-miterlimit:10;stroke-dasharray:none;stroke-opacity:1"
   d="m 769.602,88.5 10,-3.5 -10,-3.5 z" /><path
   id="path110"
   style="fill:#add8e6;fill-opacity:1;fill-rule:nonzero;stroke:none"
   d="m 655.5,58 c 0,-9.941 -12.09,-18 -27,-18 -14.91,0 -27,8.059 -27,18 0,9.941 12.09,18 27,18 14.91,0 27,-8.059 27,-18" /><path
   id="path112"
   style="fill:none;stroke:#000000;stroke-width:1;stroke-linecap:butt;stroke-linejoin:miter;stroke-miterlimit:10;stroke-dasharray:none;stroke-opacity:1"
   d="m 655.5,58 c 0,-9.941 -12.09,-18 -27,-18 -14.91,0 -27,8.059 -27,18 0,9.941 12.09,18 27,18 14.91,0 27,-8.059 27,-18" /><text
   id="text116"
   style="font-variant:normal;font-weight:normal;font-size:14px;font-family:'Times New Roman';-inkscape-font-specification:TimesNewRomanPSMT;writing-mode:lr-tb;fill:#000000;fill-opacity:1;fill-rule:nonzero;stroke:none"
   transform="matrix(1,0,0,-1,625.125,52.574219)"><tspan
     id="tspan114"
     y="0"
     x="0">y</tspan></text>
<path
   id="path118"
   style="fill:none;stroke:#000000;stroke-width:1;stroke-linecap:butt;stroke-linejoin:miter;stroke-miterlimit:10;stroke-dasharray:none;stroke-opacity:1"
   d="m 653.547,65.379 c 8.25,2.531 17.683,5.426 26.73,8.199" /><path
   id="path120"
   style="fill:#000000;fill-opacity:1;fill-rule:nonzero;stroke:#000000;stroke-width:1;stroke-linecap:butt;stroke-linejoin:miter;stroke-miterlimit:10;stroke-dasharray:none;stroke-opacity:1"
   d="m 678.973,76.84 10.59,-0.414 -8.536,-6.278 z" /></g></g></svg>
