<?xml version="1.0" encoding="UTF-8" standalone="no"?>
<svg
   viewBox="0 0 319.66662 193.33332"
   height="193.33331"
   width="319.66663"
   xml:space="preserve"
   id="svg2"
   version="1.1"
   sodipodi:docname="Visualization.gv-_1_.svg"
   xmlns:inkscape="http://www.inkscape.org/namespaces/inkscape"
   xmlns:sodipodi="http://sodipodi.sourceforge.net/DTD/sodipodi-0.dtd"
   xmlns="http://www.w3.org/2000/svg"
   xmlns:svg="http://www.w3.org/2000/svg"
   xmlns:rdf="http://www.w3.org/1999/02/22-rdf-syntax-ns#"
   xmlns:cc="http://creativecommons.org/ns#"
   xmlns:dc="http://purl.org/dc/elements/1.1/"><sodipodi:namedview
     id="namedview75"
     pagecolor="#ffffff"
     bordercolor="#000000"
     borderopacity="0.25"
     inkscape:showpageshadow="2"
     inkscape:pageopacity="0.0"
     inkscape:pagecheckerboard="0"
     inkscape:deskcolor="#d1d1d1"
     showgrid="false" /><metadata
     id="metadata8"><rdf:RDF><cc:Work
         rdf:about=""><dc:format>image/svg+xml</dc:format><dc:type
           rdf:resource="http://purl.org/dc/dcmitype/StillImage" /></cc:Work></rdf:RDF></metadata><defs
     id="defs6" /><g
     id="g263"
     transform="translate(-52.666668,-52.666679)"><path
       id="path14"
       style="fill:#add8e6;fill-opacity:1;fill-rule:nonzero;stroke:none;stroke-width:1.33333"
       d="m 125.33333,77.333342 c 0,13.254667 -16.12,23.999998 -35.999999,23.999998 -19.879999,0 -35.999999,-10.745331 -35.999999,-23.999998 0,-13.254666 16.12,-23.999999 35.999999,-23.999999 19.879999,0 35.999999,10.745333 35.999999,23.999999" /><path
       id="path16"
       style="fill:none;stroke:#000000;stroke-width:1.33333;stroke-linecap:butt;stroke-linejoin:miter;stroke-miterlimit:10;stroke-dasharray:none;stroke-opacity:1"
       d="m 125.33333,77.333342 c 0,13.254667 -16.12,23.999998 -35.999999,23.999998 -19.879999,0 -35.999999,-10.745331 -35.999999,-23.999998 0,-13.254666 16.12,-23.999999 35.999999,-23.999999 19.879999,0 35.999999,10.745333 35.999999,23.999999" /><text
       id="text20"
       style="font-variant:normal;font-weight:normal;font-size:18.6667px;font-family:'Times New Roman';-inkscape-font-specification:TimesNewRomanPSMT;writing-mode:lr-tb;fill:#000000;fill-opacity:1;fill-rule:nonzero;stroke:none;stroke-width:1.33333"
       x="85.333328"
       y="84.567719"><tspan
         id="tspan18"
         y="84.567719"
         x="85.333328"
         style="stroke-width:1.33333">a</tspan></text><path
       id="path22"
       style="fill:#f08080;fill-opacity:1;fill-rule:nonzero;stroke:#000000;stroke-width:1.33333;stroke-linecap:butt;stroke-linejoin:miter;stroke-miterlimit:10;stroke-dasharray:none;stroke-opacity:1"
       d="m 173.33333,125.33334 h 78.33333 v 48 h -78.33333 z" /><text
       id="text26"
       style="font-variant:normal;font-weight:normal;font-size:18.6667px;font-family:'Times New Roman';-inkscape-font-specification:TimesNewRomanPSMT;writing-mode:lr-tb;fill:#000000;fill-opacity:1;fill-rule:nonzero;stroke:none;stroke-width:1.33333"
       x="184"
       y="156.5677"><tspan
         id="tspan24"
         y="156.5677"
         x="184 199.99733 210.00267 219.98933 229.00534 232.98134"
         style="stroke-width:1.33333">Module</tspan></text><path
       id="path28"
       style="fill:none;stroke:#000000;stroke-width:1.33333;stroke-linecap:butt;stroke-linejoin:miter;stroke-miterlimit:10;stroke-dasharray:none;stroke-opacity:1"
       d="m 116.812,92.958675 c 12.636,7.546665 28.256,16.879995 43.12,25.765335" /><path
       id="path30"
       style="fill:#000000;fill-opacity:1;fill-rule:nonzero;stroke:#000000;stroke-width:1.33333;stroke-linecap:butt;stroke-linejoin:miter;stroke-miterlimit:10;stroke-dasharray:none;stroke-opacity:1"
       d="m 161.92666,114.47867 9.052,10.844 -13.83866,-2.83333 z" /><path
       id="path32"
       style="fill:#add8e6;fill-opacity:1;fill-rule:nonzero;stroke:none;stroke-width:1.33333"
       d="m 371.66666,149.33334 c 0,13.25467 -16.12,24 -36,24 -19.88,0 -36,-10.74533 -36,-24 0,-13.25467 16.12,-24 36,-24 19.88,0 36,10.74533 36,24" /><path
       id="path34"
       style="fill:none;stroke:#000000;stroke-width:1.33333;stroke-linecap:butt;stroke-linejoin:miter;stroke-miterlimit:10;stroke-dasharray:none;stroke-opacity:1"
       d="m 371.66666,149.33334 c 0,13.25467 -16.12,24 -36,24 -19.88,0 -36,-10.74533 -36,-24 0,-13.25467 16.12,-24 36,-24 19.88,0 36,10.74533 36,24" /><text
       id="text38"
       style="font-variant:normal;font-weight:normal;font-size:18.6667px;font-family:'Times New Roman';-inkscape-font-specification:TimesNewRomanPSMT;writing-mode:lr-tb;fill:#000000;fill-opacity:1;fill-rule:nonzero;stroke:none;stroke-width:1.33333"
       x="331.16666"
       y="156.5677"><tspan
         id="tspan36"
         y="156.5677"
         x="331.16666"
         style="stroke-width:1.33333">x</tspan></text><path
       id="path40"
       style="fill:none;stroke:#000000;stroke-width:1.33333;stroke-linecap:butt;stroke-linejoin:miter;stroke-miterlimit:10;stroke-dasharray:none;stroke-opacity:1"
       d="m 251.95866,149.33334 c 10.192,0 21.364,0 32.104,0" /><path
       id="path42"
       style="fill:#000000;fill-opacity:1;fill-rule:nonzero;stroke:#000000;stroke-width:1.33333;stroke-linecap:butt;stroke-linejoin:miter;stroke-miterlimit:10;stroke-dasharray:none;stroke-opacity:1"
       d="m 283.96933,144.66667 13.33333,4.66667 -13.33333,4.66667 z" /><path
       id="path44"
       style="fill:#add8e6;fill-opacity:1;fill-rule:nonzero;stroke:none;stroke-width:1.33333"
       d="m 125.33333,149.33334 c 0,13.25467 -16.12,24 -35.999999,24 -19.879999,0 -35.999999,-10.74533 -35.999999,-24 0,-13.25467 16.12,-24 35.999999,-24 19.879999,0 35.999999,10.74533 35.999999,24" /><path
       id="path46"
       style="fill:none;stroke:#000000;stroke-width:1.33333;stroke-linecap:butt;stroke-linejoin:miter;stroke-miterlimit:10;stroke-dasharray:none;stroke-opacity:1"
       d="m 125.33333,149.33334 c 0,13.25467 -16.12,24 -35.999999,24 -19.879999,0 -35.999999,-10.74533 -35.999999,-24 0,-13.25467 16.12,-24 35.999999,-24 19.879999,0 35.999999,10.74533 35.999999,24" /><text
       id="text50"
       style="font-variant:normal;font-weight:normal;font-size:18.6667px;font-family:'Times New Roman';-inkscape-font-specification:TimesNewRomanPSMT;writing-mode:lr-tb;fill:#000000;fill-opacity:1;fill-rule:nonzero;stroke:none;stroke-width:1.33333"
       x="84.333328"
       y="156.5677"><tspan
         id="tspan48"
         y="156.5677"
         x="84.333328"
         style="stroke-width:1.33333">b</tspan></text><path
       id="path52"
       style="fill:none;stroke:#000000;stroke-width:1.33333;stroke-linecap:butt;stroke-linejoin:miter;stroke-miterlimit:10;stroke-dasharray:none;stroke-opacity:1"
       d="m 125.52133,149.33334 c 10.10933,0 21.38533,0 32.35333,0" /><path
       id="path54"
       style="fill:#000000;fill-opacity:1;fill-rule:nonzero;stroke:#000000;stroke-width:1.33333;stroke-linecap:butt;stroke-linejoin:miter;stroke-miterlimit:10;stroke-dasharray:none;stroke-opacity:1"
       d="M 157.66666,144.66667 171,149.33334 l -13.33334,4.66667 z" /><path
       id="path56"
       style="fill:#add8e6;fill-opacity:1;fill-rule:nonzero;stroke:none;stroke-width:1.33333"
       d="m 125.33333,221.33334 c 0,13.25466 -16.12,24 -35.999999,24 -19.879999,0 -35.999999,-10.74534 -35.999999,-24 0,-13.25467 16.12,-24 35.999999,-24 19.879999,0 35.999999,10.74533 35.999999,24" /><path
       id="path58"
       style="fill:none;stroke:#000000;stroke-width:1.33333;stroke-linecap:butt;stroke-linejoin:miter;stroke-miterlimit:10;stroke-dasharray:none;stroke-opacity:1"
       d="m 125.33333,221.33334 c 0,13.25466 -16.12,24 -35.999999,24 -19.879999,0 -35.999999,-10.74534 -35.999999,-24 0,-13.25467 16.12,-24 35.999999,-24 19.879999,0 35.999999,10.74533 35.999999,24" /><text
       id="text62"
       style="font-variant:normal;font-weight:normal;font-size:18.6667px;font-family:'Times New Roman';-inkscape-font-specification:TimesNewRomanPSMT;writing-mode:lr-tb;fill:#000000;fill-opacity:1;fill-rule:nonzero;stroke:none;stroke-width:1.33333"
       x="84.833328"
       y="228.5677"><tspan
         id="tspan60"
         y="228.5677"
         x="84.833328"
         style="stroke-width:1.33333">c</tspan></text><path
       id="path64"
       style="fill:none;stroke:#000000;stroke-width:1.33333;stroke-linecap:butt;stroke-linejoin:miter;stroke-miterlimit:10;stroke-dasharray:none;stroke-opacity:1"
       d="m 116.812,205.70801 c 12.636,-7.54667 28.256,-16.88 43.12,-25.76534" /><path
       id="path66"
       style="fill:#000000;fill-opacity:1;fill-rule:nonzero;stroke:#000000;stroke-width:1.33333;stroke-linecap:butt;stroke-linejoin:miter;stroke-miterlimit:10;stroke-dasharray:none;stroke-opacity:1"
       d="m 157.14,176.17734 13.83866,-2.83333 -9.052,10.844 z" /></g></svg>
