<?xml version="1.0" encoding="UTF-8" standalone="no"?>
<svg
   viewBox="0 0 885.43732 121.33333"
   height="121.33333"
   width="885.43732"
   xml:space="preserve"
   id="svg2"
   version="1.1"
   sodipodi:docname="Net_GeneralUsage.svg"
   xmlns:inkscape="http://www.inkscape.org/namespaces/inkscape"
   xmlns:sodipodi="http://sodipodi.sourceforge.net/DTD/sodipodi-0.dtd"
   xmlns="http://www.w3.org/2000/svg"
   xmlns:svg="http://www.w3.org/2000/svg"
   xmlns:rdf="http://www.w3.org/1999/02/22-rdf-syntax-ns#"
   xmlns:cc="http://creativecommons.org/ns#"
   xmlns:dc="http://purl.org/dc/elements/1.1/"><sodipodi:namedview
     id="namedview59"
     pagecolor="#ffffff"
     bordercolor="#000000"
     borderopacity="0.25"
     inkscape:showpageshadow="2"
     inkscape:pageopacity="0.0"
     inkscape:pagecheckerboard="0"
     inkscape:deskcolor="#d1d1d1"
     showgrid="false" /><metadata
     id="metadata8"><rdf:RDF><cc:Work
         rdf:about=""><dc:format>image/svg+xml</dc:format><dc:type
           rdf:resource="http://purl.org/dc/dcmitype/StillImage" /></cc:Work></rdf:RDF></metadata><defs
     id="defs6" /><g
     transform="matrix(1.3333333,0,0,-1.3333333,-52.666664,173.99999)"
     id="g10"><g
       id="g12"><path
   id="path14"
   style="fill:#add8e6;fill-opacity:1;fill-rule:nonzero;stroke:none"
   d="m 94,112 c 0,-9.941 -12.09,-18 -27,-18 -14.91,0 -27,8.059 -27,18 0,9.941 12.09,18 27,18 14.91,0 27,-8.059 27,-18" /><path
   id="path16"
   style="fill:none;stroke:#000000;stroke-width:1;stroke-linecap:butt;stroke-linejoin:miter;stroke-miterlimit:10;stroke-dasharray:none;stroke-opacity:1"
   d="m 94,112 c 0,-9.941 -12.09,-18 -27,-18 -14.91,0 -27,8.059 -27,18 0,9.941 12.09,18 27,18 14.91,0 27,-8.059 27,-18" /><text
   id="text20"
   style="font-variant:normal;font-weight:normal;font-size:14px;font-family:'Times New Roman';-inkscape-font-specification:TimesNewRomanPSMT;writing-mode:lr-tb;fill:#000000;fill-opacity:1;fill-rule:nonzero;stroke:none"
   transform="matrix(1,0,0,-1,60.25,106.57422)"><tspan
     id="tspan18"
     y="0"
     x="0 6.7480001">x1</tspan></text>
<path
   id="path22"
   style="fill:#add8e6;fill-opacity:1;fill-rule:nonzero;stroke:#000000;stroke-width:1;stroke-linecap:butt;stroke-linejoin:miter;stroke-miterlimit:10;stroke-dasharray:none;stroke-opacity:1"
   d="m 130,103 h 54 V 67 h -54 z" /><text
   id="text26"
   style="font-variant:normal;font-weight:normal;font-size:14px;font-family:'Times New Roman';-inkscape-font-specification:TimesNewRomanPSMT;writing-mode:lr-tb;fill:#000000;fill-opacity:1;fill-rule:nonzero;stroke:none"
   transform="matrix(1,0,0,-1,144.625,79.574219)"><tspan
     id="tspan24"
     y="0"
     x="0 9.7440004 17.247999">Add</tspan></text>
<path
   id="path28"
   style="fill:none;stroke:#000000;stroke-width:1;stroke-linecap:butt;stroke-linejoin:miter;stroke-miterlimit:10;stroke-dasharray:none;stroke-opacity:1"
   d="m 92.047,104.621 c 8.25,-2.531 17.683,-5.426 26.73,-8.199" /><path
   id="path30"
   style="fill:#000000;fill-opacity:1;fill-rule:nonzero;stroke:#000000;stroke-width:1;stroke-linecap:butt;stroke-linejoin:miter;stroke-miterlimit:10;stroke-dasharray:none;stroke-opacity:1"
   d="m 119.527,99.852 8.536,-6.278 -10.59,-0.414 z" /><path
   id="path32"
   style="fill:#add8e6;fill-opacity:1;fill-rule:nonzero;stroke:#000000;stroke-width:1;stroke-linecap:butt;stroke-linejoin:miter;stroke-miterlimit:10;stroke-dasharray:none;stroke-opacity:1"
   d="m 328.117,85 c 0,-9.941 -24.203,-18 -54.058,-18 C 244.203,67 220,75.059 220,85 c 0,9.941 24.203,18 54.059,18 29.855,0 54.058,-8.059 54.058,-18" /><text
   id="text36"
   style="font-variant:normal;font-weight:normal;font-size:14px;font-family:'Times New Roman';-inkscape-font-specification:TimesNewRomanPSMT;writing-mode:lr-tb;fill:#000000;fill-opacity:1;fill-rule:nonzero;stroke:none"
   transform="matrix(1,0,0,-1,241.43359,79.574219)"><tspan
     id="tspan34"
     y="0"
     x="0 6.7480001 13.496 21 28.504 31.486 38.234001 44.240002 51.73 58.492001">x1_plus_x2</tspan></text>
<path
   id="path38"
   style="fill:none;stroke:#000000;stroke-width:1;stroke-linecap:butt;stroke-linejoin:miter;stroke-miterlimit:10;stroke-dasharray:none;stroke-opacity:1"
   d="m 184.398,85 c 7.204,0 15.344,0 23.696,0" /><path
   id="path40"
   style="fill:#000000;fill-opacity:1;fill-rule:nonzero;stroke:#000000;stroke-width:1;stroke-linecap:butt;stroke-linejoin:miter;stroke-miterlimit:10;stroke-dasharray:none;stroke-opacity:1"
   d="m 208.035,88.5 10,-3.5 -10,-3.5 z" /><path
   id="path42"
   style="fill:#add8e6;fill-opacity:1;fill-rule:nonzero;stroke:none"
   d="M 94,58 C 94,48.059 81.91,40 67,40 52.09,40 40,48.059 40,58 c 0,9.941 12.09,18 27,18 14.91,0 27,-8.059 27,-18" /><path
   id="path44"
   style="fill:none;stroke:#000000;stroke-width:1;stroke-linecap:butt;stroke-linejoin:miter;stroke-miterlimit:10;stroke-dasharray:none;stroke-opacity:1"
   d="M 94,58 C 94,48.059 81.91,40 67,40 52.09,40 40,48.059 40,58 c 0,9.941 12.09,18 27,18 14.91,0 27,-8.059 27,-18" /><text
   id="text48"
   style="font-variant:normal;font-weight:normal;font-size:14px;font-family:'Times New Roman';-inkscape-font-specification:TimesNewRomanPSMT;writing-mode:lr-tb;fill:#000000;fill-opacity:1;fill-rule:nonzero;stroke:none"
   transform="matrix(1,0,0,-1,60.25,52.574219)"><tspan
     id="tspan46"
     y="0"
     x="0 6.7480001">x2</tspan></text>
<path
   id="path50"
   style="fill:none;stroke:#000000;stroke-width:1;stroke-linecap:butt;stroke-linejoin:miter;stroke-miterlimit:10;stroke-dasharray:none;stroke-opacity:1"
   d="m 92.047,65.379 c 8.25,2.531 17.683,5.426 26.73,8.199" /><path
   id="path52"
   style="fill:#000000;fill-opacity:1;fill-rule:nonzero;stroke:#000000;stroke-width:1;stroke-linecap:butt;stroke-linejoin:miter;stroke-miterlimit:10;stroke-dasharray:none;stroke-opacity:1"
   d="m 117.473,76.84 10.59,-0.414 -8.536,-6.278 z" /><path
   id="path54"
   style="fill:#f08080;fill-opacity:1;fill-rule:nonzero;stroke:#000000;stroke-width:1;stroke-linecap:butt;stroke-linejoin:miter;stroke-miterlimit:10;stroke-dasharray:none;stroke-opacity:1"
   d="m 364.117,103 h 58 V 67 h -58 z" /><text
   id="text58"
   style="font-variant:normal;font-weight:normal;font-size:14px;font-family:'Times New Roman';-inkscape-font-specification:TimesNewRomanPSMT;writing-mode:lr-tb;fill:#000000;fill-opacity:1;fill-rule:nonzero;stroke:none"
   transform="matrix(1,0,0,-1,372.11719,79.574219)"><tspan
     id="tspan56"
     y="0"
     x="0 11.998 17.99 21.728001 32.214001 38.962002">Matmul</tspan></text>
<path
   id="path60"
   style="fill:none;stroke:#000000;stroke-width:1;stroke-linecap:butt;stroke-linejoin:miter;stroke-miterlimit:10;stroke-dasharray:none;stroke-opacity:1"
   d="m 328.449,85 c 8.086,0 16.309,0 24.035,0" /><path
   id="path62"
   style="fill:#000000;fill-opacity:1;fill-rule:nonzero;stroke:#000000;stroke-width:1;stroke-linecap:butt;stroke-linejoin:miter;stroke-miterlimit:10;stroke-dasharray:none;stroke-opacity:1"
   d="m 352.242,88.5 10,-3.5 -10,-3.5 z" /><path
   id="path64"
   style="fill:#add8e6;fill-opacity:1;fill-rule:nonzero;stroke:#000000;stroke-width:1;stroke-linecap:butt;stroke-linejoin:miter;stroke-miterlimit:10;stroke-dasharray:none;stroke-opacity:1"
   d="m 512.117,85 c 0,-9.941 -12.09,-18 -27,-18 -14.914,0 -27,8.059 -27,18 0,9.941 12.086,18 27,18 14.91,0 27,-8.059 27,-18" /><text
   id="text68"
   style="font-variant:normal;font-weight:normal;font-size:14px;font-family:'Times New Roman';-inkscape-font-specification:TimesNewRomanPSMT;writing-mode:lr-tb;fill:#000000;fill-opacity:1;fill-rule:nonzero;stroke:none"
   transform="matrix(1,0,0,-1,482.11719,79.574219)"><tspan
     id="tspan66"
     y="0"
     x="0">z</tspan></text>
<path
   id="path70"
   style="fill:none;stroke:#000000;stroke-width:1;stroke-linecap:butt;stroke-linejoin:miter;stroke-miterlimit:10;stroke-dasharray:none;stroke-opacity:1"
   d="m 422.594,85 c 7.543,0 15.804,0 23.758,0" /><path
   id="path72"
   style="fill:#000000;fill-opacity:1;fill-rule:nonzero;stroke:#000000;stroke-width:1;stroke-linecap:butt;stroke-linejoin:miter;stroke-miterlimit:10;stroke-dasharray:none;stroke-opacity:1"
   d="m 446.148,88.5 10,-3.5 -10,-3.5 z" /><path
   id="path74"
   style="fill:#add8e6;fill-opacity:1;fill-rule:nonzero;stroke:#000000;stroke-width:1;stroke-linecap:butt;stroke-linejoin:miter;stroke-miterlimit:10;stroke-dasharray:none;stroke-opacity:1"
   d="m 548.117,130 h 58.75 V 94 h -58.75 z" /><text
   id="text78"
   style="font-variant:normal;font-weight:normal;font-size:14px;font-family:'Times New Roman';-inkscape-font-specification:TimesNewRomanPSMT;writing-mode:lr-tb;fill:#000000;fill-opacity:1;fill-rule:nonzero;stroke:none"
   transform="matrix(1,0,0,-1,556.11719,106.57422)"><tspan
     id="tspan76"
     y="0"
     x="0 8.2320004 15.736 21.742001 27.733999 35.98">LossF1</tspan></text>
<path
   id="path80"
   style="fill:none;stroke:#000000;stroke-width:1;stroke-linecap:butt;stroke-linejoin:miter;stroke-miterlimit:10;stroke-dasharray:none;stroke-opacity:1"
   d="m 510.336,92.234 c 8.176,2.446 17.531,5.239 26.582,7.942" /><path
   id="path82"
   style="fill:#000000;fill-opacity:1;fill-rule:nonzero;stroke:#000000;stroke-width:1;stroke-linecap:butt;stroke-linejoin:miter;stroke-miterlimit:10;stroke-dasharray:none;stroke-opacity:1"
   d="m 535.672,103.457 10.582,-0.488 -8.578,-6.219 z" /><path
   id="path84"
   style="fill:#add8e6;fill-opacity:1;fill-rule:nonzero;stroke:#000000;stroke-width:1;stroke-linecap:butt;stroke-linejoin:miter;stroke-miterlimit:10;stroke-dasharray:none;stroke-opacity:1"
   d="m 548.117,76 h 58.75 V 40 h -58.75 z" /><text
   id="text88"
   style="font-variant:normal;font-weight:normal;font-size:14px;font-family:'Times New Roman';-inkscape-font-specification:TimesNewRomanPSMT;writing-mode:lr-tb;fill:#000000;fill-opacity:1;fill-rule:nonzero;stroke:none"
   transform="matrix(1,0,0,-1,556.11719,52.574219)"><tspan
     id="tspan86"
     y="0"
     x="0 8.2320004 15.736 21.742001 27.733999 35.98">LossF2</tspan></text>
<path
   id="path90"
   style="fill:none;stroke:#000000;stroke-width:1;stroke-linecap:butt;stroke-linejoin:miter;stroke-miterlimit:10;stroke-dasharray:none;stroke-opacity:1"
   d="m 510.336,77.766 c 8.176,-2.446 17.531,-5.239 26.582,-7.942" /><path
   id="path92"
   style="fill:#000000;fill-opacity:1;fill-rule:nonzero;stroke:#000000;stroke-width:1;stroke-linecap:butt;stroke-linejoin:miter;stroke-miterlimit:10;stroke-dasharray:none;stroke-opacity:1"
   d="m 537.676,73.25 8.578,-6.219 -10.582,-0.488 z" /><path
   id="path94"
   style="fill:#add8e6;fill-opacity:1;fill-rule:nonzero;stroke:none"
   d="m 703.078,112 c 0,-9.941 -13.48,-18 -30.105,-18 -16.629,0 -30.106,8.059 -30.106,18 0,9.941 13.477,18 30.106,18 16.625,0 30.105,-8.059 30.105,-18" /><path
   id="path96"
   style="fill:none;stroke:#000000;stroke-width:1;stroke-linecap:butt;stroke-linejoin:miter;stroke-miterlimit:10;stroke-dasharray:none;stroke-opacity:1"
   d="m 703.078,112 c 0,-9.941 -13.48,-18 -30.105,-18 -16.629,0 -30.106,8.059 -30.106,18 0,9.941 13.477,18 30.106,18 16.625,0 30.105,-8.059 30.105,-18" /><text
   id="text100"
   style="font-variant:normal;font-weight:normal;font-size:14px;font-family:'Times New Roman';-inkscape-font-specification:TimesNewRomanPSMT;writing-mode:lr-tb;fill:#000000;fill-opacity:1;fill-rule:nonzero;stroke:none"
   transform="matrix(1,0,0,-1,658.34766,106.57422)"><tspan
     id="tspan98"
     y="0"
     x="0 2.9820001 10.486 16.492001 22.483999">loss1</tspan></text>
<path
   id="path102"
   style="fill:none;stroke:#000000;stroke-width:1;stroke-linecap:butt;stroke-linejoin:miter;stroke-miterlimit:10;stroke-dasharray:none;stroke-opacity:1"
   d="m 607.301,112 c 7.496,0 15.719,0 23.715,0" /><path
   id="path104"
   style="fill:#000000;fill-opacity:1;fill-rule:nonzero;stroke:#000000;stroke-width:1;stroke-linecap:butt;stroke-linejoin:miter;stroke-miterlimit:10;stroke-dasharray:none;stroke-opacity:1"
   d="m 630.938,115.5 10,-3.5 -10,-3.5 z" /><path
   id="path106"
   style="fill:#add8e6;fill-opacity:1;fill-rule:nonzero;stroke:none"
   d="m 703.078,58 c 0,-9.941 -13.48,-18 -30.105,-18 -16.629,0 -30.106,8.059 -30.106,18 0,9.941 13.477,18 30.106,18 16.625,0 30.105,-8.059 30.105,-18" /><path
   id="path108"
   style="fill:none;stroke:#000000;stroke-width:1;stroke-linecap:butt;stroke-linejoin:miter;stroke-miterlimit:10;stroke-dasharray:none;stroke-opacity:1"
   d="m 703.078,58 c 0,-9.941 -13.48,-18 -30.105,-18 -16.629,0 -30.106,8.059 -30.106,18 0,9.941 13.477,18 30.106,18 16.625,0 30.105,-8.059 30.105,-18" /><text
   id="text112"
   style="font-variant:normal;font-weight:normal;font-size:14px;font-family:'Times New Roman';-inkscape-font-specification:TimesNewRomanPSMT;writing-mode:lr-tb;fill:#000000;fill-opacity:1;fill-rule:nonzero;stroke:none"
   transform="matrix(1,0,0,-1,658.34766,52.574219)"><tspan
     id="tspan110"
     y="0"
     x="0 2.9820001 10.486 16.492001 22.483999">loss2</tspan></text>
<path
   id="path114"
   style="fill:none;stroke:#000000;stroke-width:1;stroke-linecap:butt;stroke-linejoin:miter;stroke-miterlimit:10;stroke-dasharray:none;stroke-opacity:1"
   d="m 607.301,58 c 7.496,0 15.719,0 23.715,0" /><path
   id="path116"
   style="fill:#000000;fill-opacity:1;fill-rule:nonzero;stroke:#000000;stroke-width:1;stroke-linecap:butt;stroke-linejoin:miter;stroke-miterlimit:10;stroke-dasharray:none;stroke-opacity:1"
   d="m 630.938,61.5 10,-3.5 -10,-3.5 z" /></g></g></svg>
