<svg width="194" height="107" viewBox="0 0 194 107" fill="none" xmlns="http://www.w3.org/2000/svg">
<path d="M79 86.2131L100.213 64.9999" stroke="#F5F5F5" stroke-width="3.5"/>
<circle cx="10" cy="97" r="8.25" stroke="#F5F5F5" stroke-width="3.5"/>
<path d="M170 54L152.5 43.8964V64.1036L170 54ZM125 55.75H154.25V52.25H125V55.75Z" fill="#F5F5F5"/>
<path d="M24 97H54" stroke="#F5F5F5" stroke-width="3.5"/>
<path d="M54 11L36.5 0.89637V21.1036L54 11ZM24 12.75H38.25V9.25H24V12.75Z" fill="#F5F5F5"/>
<circle cx="151" cy="11" r="8.25" stroke="#F5F5F5" stroke-width="3.5"/>
<circle cx="10" cy="11" r="8.25" fill="#FFA8A8" stroke="#F5F5F5" stroke-width="3.5"/>
<path d="M79 22L100.213 43.2132" stroke="#F5F5F5" stroke-width="3.5"/>
<path d="M82 11H137" stroke="#F5F5F5" stroke-width="3.5"/>
<circle cx="68" cy="11" r="8.25" stroke="#F5F5F5" stroke-width="3.5"/>
<circle cx="111" cy="54" r="8.25" fill="#638FFF" stroke="#F5F5F5" stroke-width="3.5"/>
<circle cx="68" cy="97" r="8.25" stroke="#F5F5F5" stroke-width="3.5"/>
<circle cx="184" cy="54" r="8.25" stroke="#95B3FF" stroke-width="3.5"/>
</svg>
