<svg width="467" height="107" viewBox="0 0 467 107" fill="none" xmlns="http://www.w3.org/2000/svg">
<path d="M79 86.2131L100.213 64.9999" stroke="#F5F5F5" stroke-width="3.5"/>
<circle cx="10" cy="97" r="8.25" stroke="#F5F5F5" stroke-width="3.5"/>
<path d="M170 54L152.5 43.8964V64.1036L170 54ZM125 55.75H154.25V52.25H125V55.75Z" fill="#F5F5F5"/>
<path d="M24 97H54" stroke="#F5F5F5" stroke-width="3.5"/>
<path d="M54 11L36.5 0.89637V21.1036L54 11ZM24 12.75H38.25V9.25H24V12.75Z" fill="#F5F5F5"/>
<circle cx="151" cy="11" r="8.25" stroke="#F5F5F5" stroke-width="3.5"/>
<circle cx="10" cy="11" r="8.25" fill="#FFA8A8" stroke="#F5F5F5" stroke-width="3.5"/>
<path d="M79 22L100.213 43.2132" stroke="#F5F5F5" stroke-width="3.5"/>
<path d="M82 11H137" stroke="#F5F5F5" stroke-width="3.5"/>
<circle cx="68" cy="11" r="8.25" stroke="#F5F5F5" stroke-width="3.5"/>
<circle cx="111" cy="54" r="8.25" fill="#638FFF" stroke="#F5F5F5" stroke-width="3.5"/>
<circle cx="68" cy="97" r="8.25" stroke="#F5F5F5" stroke-width="3.5"/>
<circle cx="184" cy="54" r="8.25" stroke="#95B3FF" stroke-width="3.5"/>
<path d="M237.76 40.12C240.8 40.12 243.427 40.6933 245.64 41.84C247.88 42.96 249.587 44.5733 250.76 46.68C251.96 48.7867 252.56 51.2667 252.56 54.12C252.56 56.9733 251.96 59.4533 250.76 61.56C249.587 63.64 247.88 65.24 245.64 66.36C243.427 67.4533 240.8 68 237.76 68H229.08V40.12H237.76ZM237.76 65C241.36 65 244.107 64.0533 246 62.16C247.893 60.24 248.84 57.56 248.84 54.12C248.84 50.6533 247.88 47.9467 245.96 46C244.067 44.0533 241.333 43.08 237.76 43.08H232.72V65H237.76ZM277.361 56.2C277.361 56.8933 277.321 57.6267 277.241 58.4H259.721C259.855 60.56 260.588 62.2533 261.921 63.48C263.281 64.68 264.921 65.28 266.841 65.28C268.415 65.28 269.721 64.92 270.761 64.2C271.828 63.4533 272.575 62.4667 273.001 61.24H276.921C276.335 63.3467 275.161 65.0667 273.401 66.4C271.641 67.7067 269.455 68.36 266.841 68.36C264.761 68.36 262.895 67.8933 261.241 66.96C259.615 66.0267 258.335 64.7067 257.401 63C256.468 61.2667 256.001 59.2667 256.001 57C256.001 54.7333 256.455 52.7467 257.361 51.04C258.268 49.3333 259.535 48.0267 261.161 47.12C262.815 46.1867 264.708 45.72 266.841 45.72C268.921 45.72 270.761 46.1733 272.361 47.08C273.961 47.9867 275.188 49.24 276.041 50.84C276.921 52.4133 277.361 54.2 277.361 56.2ZM273.601 55.44C273.601 54.0533 273.295 52.8667 272.681 51.88C272.068 50.8667 271.228 50.1067 270.161 49.6C269.121 49.0667 267.961 48.8 266.681 48.8C264.841 48.8 263.268 49.3867 261.961 50.56C260.681 51.7333 259.948 53.36 259.761 55.44H273.601ZM302.166 56.2C302.166 56.8933 302.126 57.6267 302.046 58.4H284.526C284.659 60.56 285.393 62.2533 286.726 63.48C288.086 64.68 289.726 65.28 291.646 65.28C293.219 65.28 294.526 64.92 295.566 64.2C296.633 63.4533 297.379 62.4667 297.806 61.24H301.726C301.139 63.3467 299.966 65.0667 298.206 66.4C296.446 67.7067 294.259 68.36 291.646 68.36C289.566 68.36 287.699 67.8933 286.046 66.96C284.419 66.0267 283.139 64.7067 282.206 63C281.273 61.2667 280.806 59.2667 280.806 57C280.806 54.7333 281.259 52.7467 282.166 51.04C283.073 49.3333 284.339 48.0267 285.966 47.12C287.619 46.1867 289.513 45.72 291.646 45.72C293.726 45.72 295.566 46.1733 297.166 47.08C298.766 47.9867 299.993 49.24 300.846 50.84C301.726 52.4133 302.166 54.2 302.166 56.2ZM298.406 55.44C298.406 54.0533 298.099 52.8667 297.486 51.88C296.873 50.8667 296.033 50.1067 294.966 49.6C293.926 49.0667 292.766 48.8 291.486 48.8C289.646 48.8 288.073 49.3867 286.766 50.56C285.486 51.7333 284.753 53.36 284.566 55.44H298.406ZM310.611 50.12C311.331 48.8667 312.397 47.8267 313.811 47C315.251 46.1467 316.917 45.72 318.811 45.72C320.757 45.72 322.517 46.1867 324.091 47.12C325.691 48.0533 326.944 49.3733 327.851 51.08C328.757 52.76 329.211 54.72 329.211 56.96C329.211 59.1733 328.757 61.1467 327.851 62.88C326.944 64.6133 325.691 65.96 324.091 66.92C322.517 67.88 320.757 68.36 318.811 68.36C316.944 68.36 315.291 67.9467 313.851 67.12C312.437 66.2667 311.357 65.2133 310.611 63.96V78.4H306.971V46.08H310.611V50.12ZM325.491 56.96C325.491 55.3067 325.157 53.8667 324.491 52.64C323.824 51.4133 322.917 50.48 321.771 49.84C320.651 49.2 319.411 48.88 318.051 48.88C316.717 48.88 315.477 49.2133 314.331 49.88C313.211 50.52 312.304 51.4667 311.611 52.72C310.944 53.9467 310.611 55.3733 310.611 57C310.611 58.6533 310.944 60.1067 311.611 61.36C312.304 62.5867 313.211 63.5333 314.331 64.2C315.477 64.84 316.717 65.16 318.051 65.16C319.411 65.16 320.651 64.84 321.771 64.2C322.917 63.5333 323.824 62.5867 324.491 61.36C325.157 60.1067 325.491 58.64 325.491 56.96ZM351.682 39.92V45.4H340.242V51.32H348.802V56.64H340.242V68H333.402V39.92H351.682ZM377.317 45.68V68H370.477V64.96C369.784 65.9467 368.837 66.7467 367.637 67.36C366.464 67.9467 365.157 68.24 363.717 68.24C362.01 68.24 360.504 67.8667 359.197 67.12C357.89 66.3467 356.877 65.24 356.157 63.8C355.437 62.36 355.077 60.6667 355.077 58.72V45.68H361.877V57.8C361.877 59.2933 362.264 60.4533 363.037 61.28C363.81 62.1067 364.85 62.52 366.157 62.52C367.49 62.52 368.544 62.1067 369.317 61.28C370.09 60.4533 370.477 59.2933 370.477 57.8V45.68H377.317ZM391.31 68.32C389.363 68.32 387.63 67.9867 386.11 67.32C384.59 66.6533 383.39 65.7467 382.51 64.6C381.63 63.4267 381.137 62.12 381.03 60.68H387.79C387.87 61.4533 388.23 62.08 388.87 62.56C389.51 63.04 390.297 63.28 391.23 63.28C392.083 63.28 392.737 63.12 393.19 62.8C393.67 62.4533 393.91 62.0133 393.91 61.48C393.91 60.84 393.577 60.3733 392.91 60.08C392.243 59.76 391.163 59.4133 389.67 59.04C388.07 58.6667 386.737 58.28 385.67 57.88C384.603 57.4533 383.683 56.8 382.91 55.92C382.137 55.0133 381.75 53.8 381.75 52.28C381.75 51 382.097 49.84 382.79 48.8C383.51 47.7333 384.55 46.8933 385.91 46.28C387.297 45.6667 388.937 45.36 390.83 45.36C393.63 45.36 395.83 46.0533 397.43 47.44C399.057 48.8267 399.99 50.6667 400.23 52.96H393.91C393.803 52.1867 393.457 51.5733 392.87 51.12C392.31 50.6667 391.563 50.44 390.63 50.44C389.83 50.44 389.217 50.6 388.79 50.92C388.363 51.2133 388.15 51.6267 388.15 52.16C388.15 52.8 388.483 53.28 389.15 53.6C389.843 53.92 390.91 54.24 392.35 54.56C394.003 54.9867 395.35 55.4133 396.39 55.84C397.43 56.24 398.337 56.9067 399.11 57.84C399.91 58.7467 400.323 59.9733 400.35 61.52C400.35 62.8267 399.977 64 399.23 65.04C398.51 66.0533 397.457 66.8533 396.07 67.44C394.71 68.0267 393.123 68.32 391.31 68.32ZM407.975 43.36C406.775 43.36 405.788 43.0133 405.015 42.32C404.268 41.6 403.895 40.72 403.895 39.68C403.895 38.6133 404.268 37.7333 405.015 37.04C405.788 36.32 406.775 35.96 407.975 35.96C409.148 35.96 410.108 36.32 410.855 37.04C411.628 37.7333 412.015 38.6133 412.015 39.68C412.015 40.72 411.628 41.6 410.855 42.32C410.108 43.0133 409.148 43.36 407.975 43.36ZM411.375 45.68V68H404.535V45.68H411.375ZM426.492 68.32C424.305 68.32 422.332 67.8533 420.572 66.92C418.838 65.9867 417.465 64.6533 416.452 62.92C415.465 61.1867 414.972 59.16 414.972 56.84C414.972 54.5467 415.478 52.5333 416.492 50.8C417.505 49.04 418.892 47.6933 420.652 46.76C422.412 45.8267 424.385 45.36 426.572 45.36C428.758 45.36 430.732 45.8267 432.492 46.76C434.252 47.6933 435.638 49.04 436.652 50.8C437.665 52.5333 438.172 54.5467 438.172 56.84C438.172 59.1333 437.652 61.16 436.612 62.92C435.598 64.6533 434.198 65.9867 432.412 66.92C430.652 67.8533 428.678 68.32 426.492 68.32ZM426.492 62.4C427.798 62.4 428.905 61.92 429.812 60.96C430.745 60 431.212 58.6267 431.212 56.84C431.212 55.0533 430.758 53.68 429.852 52.72C428.972 51.76 427.878 51.28 426.572 51.28C425.238 51.28 424.132 51.76 423.252 52.72C422.372 53.6533 421.932 55.0267 421.932 56.84C421.932 58.6267 422.358 60 423.212 60.96C424.092 61.92 425.185 62.4 426.492 62.4ZM455.4 45.44C458.014 45.44 460.094 46.2933 461.64 48C463.214 49.68 464 52 464 54.96V68H457.2V55.88C457.2 54.3867 456.814 53.2267 456.04 52.4C455.267 51.5733 454.227 51.16 452.92 51.16C451.614 51.16 450.574 51.5733 449.8 52.4C449.027 53.2267 448.64 54.3867 448.64 55.88V68H441.8V45.68H448.64V48.64C449.334 47.6533 450.267 46.88 451.44 46.32C452.614 45.7333 453.934 45.44 455.4 45.44Z" fill="#F5F5F5"/>
</svg>
