<svg width="194" height="158" viewBox="0 0 194 158" fill="none" xmlns="http://www.w3.org/2000/svg">
<path d="M79 86.2131L100.213 64.9999" stroke="#2F3543" stroke-width="3.5"/>
<circle cx="10" cy="97" r="8.25" stroke="#2F3543" stroke-width="3.5"/>
<path d="M170 54L152.5 43.8964V64.1036L170 54ZM125 55.75H154.25V52.25H125V55.75Z" fill="#2F3543"/>
<path d="M24 97H54" stroke="#2F3543" stroke-width="3.5"/>
<path d="M54 11L36.5 0.89637V21.1036L54 11ZM24 12.75H38.25V9.25H24V12.75Z" fill="#2F3543"/>
<circle cx="151" cy="11" r="8.25" stroke="#2F3543" stroke-width="3.5"/>
<circle cx="10" cy="11" r="8.25" fill="#FFA8A8" stroke="#2F3543" stroke-width="3.5"/>
<path d="M79 22L100.213 43.2132" stroke="#2F3543" stroke-width="3.5"/>
<path d="M82 11H137" stroke="#2F3543" stroke-width="3.5"/>
<circle cx="68" cy="11" r="8.25" stroke="#2F3543" stroke-width="3.5"/>
<circle cx="111" cy="54" r="8.25" fill="#638FFF" stroke="#2F3543" stroke-width="3.5"/>
<circle cx="68" cy="97" r="8.25" stroke="#2F3543" stroke-width="3.5"/>
<circle cx="184" cy="54" r="8.25" stroke="#95B3FF" stroke-width="3.5"/>
<path d="M26.644 129.878C28.62 129.878 30.3273 130.251 31.766 130.996C33.222 131.724 34.3313 132.773 35.094 134.142C35.874 135.511 36.264 137.123 36.264 138.978C36.264 140.833 35.874 142.445 35.094 143.814C34.3313 145.166 33.222 146.206 31.766 146.934C30.3273 147.645 28.62 148 26.644 148H21.002V129.878H26.644ZM26.644 146.05C28.984 146.05 30.7693 145.435 32 144.204C33.2307 142.956 33.846 141.214 33.846 138.978C33.846 136.725 33.222 134.965 31.974 133.7C30.7433 132.435 28.9667 131.802 26.644 131.802H23.368V146.05H26.644ZM52.3848 140.33C52.3848 140.781 52.3588 141.257 52.3068 141.76H40.9188C41.0055 143.164 41.4821 144.265 42.3488 145.062C43.2328 145.842 44.2988 146.232 45.5468 146.232C46.5695 146.232 47.4188 145.998 48.0948 145.53C48.7881 145.045 49.2735 144.403 49.5508 143.606H52.0988C51.7175 144.975 50.9548 146.093 49.8108 146.96C48.6668 147.809 47.2455 148.234 45.5468 148.234C44.1948 148.234 42.9815 147.931 41.9068 147.324C40.8495 146.717 40.0175 145.859 39.4108 144.75C38.8041 143.623 38.5008 142.323 38.5008 140.85C38.5008 139.377 38.7955 138.085 39.3848 136.976C39.9741 135.867 40.7975 135.017 41.8548 134.428C42.9295 133.821 44.1601 133.518 45.5468 133.518C46.8988 133.518 48.0948 133.813 49.1348 134.402C50.1748 134.991 50.9721 135.806 51.5268 136.846C52.0988 137.869 52.3848 139.03 52.3848 140.33ZM49.9408 139.836C49.9408 138.935 49.7415 138.163 49.3428 137.522C48.9441 136.863 48.3981 136.369 47.7048 136.04C47.0288 135.693 46.2748 135.52 45.4428 135.52C44.2468 135.52 43.2241 135.901 42.3748 136.664C41.5428 137.427 41.0661 138.484 40.9448 139.836H49.9408ZM68.5079 140.33C68.5079 140.781 68.4819 141.257 68.4299 141.76H57.0419C57.1285 143.164 57.6052 144.265 58.4719 145.062C59.3559 145.842 60.4219 146.232 61.6699 146.232C62.6925 146.232 63.5419 145.998 64.2179 145.53C64.9112 145.045 65.3965 144.403 65.6739 143.606H68.2219C67.8405 144.975 67.0779 146.093 65.9339 146.96C64.7899 147.809 63.3685 148.234 61.6699 148.234C60.3179 148.234 59.1045 147.931 58.0299 147.324C56.9725 146.717 56.1405 145.859 55.5339 144.75C54.9272 143.623 54.6239 142.323 54.6239 140.85C54.6239 139.377 54.9185 138.085 55.5079 136.976C56.0972 135.867 56.9205 135.017 57.9779 134.428C59.0525 133.821 60.2832 133.518 61.6699 133.518C63.0219 133.518 64.2179 133.813 65.2579 134.402C66.2979 134.991 67.0952 135.806 67.6499 136.846C68.2219 137.869 68.5079 139.03 68.5079 140.33ZM66.0639 139.836C66.0639 138.935 65.8645 138.163 65.4659 137.522C65.0672 136.863 64.5212 136.369 63.8279 136.04C63.1519 135.693 62.3979 135.52 61.5659 135.52C60.3699 135.52 59.3472 135.901 58.4979 136.664C57.6659 137.427 57.1892 138.484 57.0679 139.836H66.0639ZM73.9969 136.378C74.4649 135.563 75.1582 134.887 76.0769 134.35C77.0129 133.795 78.0962 133.518 79.3269 133.518C80.5922 133.518 81.7362 133.821 82.7589 134.428C83.7989 135.035 84.6136 135.893 85.2029 137.002C85.7922 138.094 86.0869 139.368 86.0869 140.824C86.0869 142.263 85.7922 143.545 85.2029 144.672C84.6136 145.799 83.7989 146.674 82.7589 147.298C81.7362 147.922 80.5922 148.234 79.3269 148.234C78.1136 148.234 77.0389 147.965 76.1029 147.428C75.1842 146.873 74.4822 146.189 73.9969 145.374V154.76H71.6309V133.752H73.9969V136.378ZM83.6689 140.824C83.6689 139.749 83.4522 138.813 83.0189 138.016C82.5856 137.219 81.9962 136.612 81.2509 136.196C80.5229 135.78 79.7169 135.572 78.8329 135.572C77.9662 135.572 77.1602 135.789 76.4149 136.222C75.6869 136.638 75.0976 137.253 74.6469 138.068C74.2136 138.865 73.9969 139.793 73.9969 140.85C73.9969 141.925 74.2136 142.869 74.6469 143.684C75.0976 144.481 75.6869 145.097 76.4149 145.53C77.1602 145.946 77.9662 146.154 78.8329 146.154C79.7169 146.154 80.5229 145.946 81.2509 145.53C81.9962 145.097 82.5856 144.481 83.0189 143.684C83.4522 142.869 83.6689 141.916 83.6689 140.824ZM100.693 129.748V133.31H93.2572V137.158H98.8212V140.616H93.2572V148H88.8112V129.748H100.693ZM117.356 133.492V148H112.91V146.024C112.459 146.665 111.844 147.185 111.064 147.584C110.301 147.965 109.452 148.156 108.516 148.156C107.407 148.156 106.427 147.913 105.578 147.428C104.729 146.925 104.07 146.206 103.602 145.27C103.134 144.334 102.9 143.233 102.9 141.968V133.492H107.32V141.37C107.32 142.341 107.571 143.095 108.074 143.632C108.577 144.169 109.253 144.438 110.102 144.438C110.969 144.438 111.653 144.169 112.156 143.632C112.659 143.095 112.91 142.341 112.91 141.37V133.492H117.356ZM126.452 148.208C125.186 148.208 124.06 147.991 123.072 147.558C122.084 147.125 121.304 146.535 120.732 145.79C120.16 145.027 119.839 144.178 119.77 143.242H124.164C124.216 143.745 124.45 144.152 124.866 144.464C125.282 144.776 125.793 144.932 126.4 144.932C126.954 144.932 127.379 144.828 127.674 144.62C127.986 144.395 128.142 144.109 128.142 143.762C128.142 143.346 127.925 143.043 127.492 142.852C127.058 142.644 126.356 142.419 125.386 142.176C124.346 141.933 123.479 141.682 122.786 141.422C122.092 141.145 121.494 140.72 120.992 140.148C120.489 139.559 120.238 138.77 120.238 137.782C120.238 136.95 120.463 136.196 120.914 135.52C121.382 134.827 122.058 134.281 122.942 133.882C123.843 133.483 124.909 133.284 126.14 133.284C127.96 133.284 129.39 133.735 130.43 134.636C131.487 135.537 132.094 136.733 132.25 138.224H128.142C128.072 137.721 127.847 137.323 127.466 137.028C127.102 136.733 126.616 136.586 126.01 136.586C125.49 136.586 125.091 136.69 124.814 136.898C124.536 137.089 124.398 137.357 124.398 137.704C124.398 138.12 124.614 138.432 125.048 138.64C125.498 138.848 126.192 139.056 127.128 139.264C128.202 139.541 129.078 139.819 129.754 140.096C130.43 140.356 131.019 140.789 131.522 141.396C132.042 141.985 132.31 142.783 132.328 143.788C132.328 144.637 132.085 145.4 131.6 146.076C131.132 146.735 130.447 147.255 129.546 147.636C128.662 148.017 127.63 148.208 126.452 148.208ZM137.284 131.984C136.504 131.984 135.862 131.759 135.36 131.308C134.874 130.84 134.632 130.268 134.632 129.592C134.632 128.899 134.874 128.327 135.36 127.876C135.862 127.408 136.504 127.174 137.284 127.174C138.046 127.174 138.67 127.408 139.156 127.876C139.658 128.327 139.91 128.899 139.91 129.592C139.91 130.268 139.658 130.84 139.156 131.308C138.67 131.759 138.046 131.984 137.284 131.984ZM139.494 133.492V148H135.048V133.492H139.494ZM149.32 148.208C147.898 148.208 146.616 147.905 145.472 147.298C144.345 146.691 143.452 145.825 142.794 144.698C142.152 143.571 141.832 142.254 141.832 140.746C141.832 139.255 142.161 137.947 142.82 136.82C143.478 135.676 144.38 134.801 145.524 134.194C146.668 133.587 147.95 133.284 149.372 133.284C150.793 133.284 152.076 133.587 153.22 134.194C154.364 134.801 155.265 135.676 155.924 136.82C156.582 137.947 156.912 139.255 156.912 140.746C156.912 142.237 156.574 143.554 155.898 144.698C155.239 145.825 154.329 146.691 153.168 147.298C152.024 147.905 150.741 148.208 149.32 148.208ZM149.32 144.36C150.169 144.36 150.888 144.048 151.478 143.424C152.084 142.8 152.388 141.907 152.388 140.746C152.388 139.585 152.093 138.692 151.504 138.068C150.932 137.444 150.221 137.132 149.372 137.132C148.505 137.132 147.786 137.444 147.214 138.068C146.642 138.675 146.356 139.567 146.356 140.746C146.356 141.907 146.633 142.8 147.188 143.424C147.76 144.048 148.47 144.36 149.32 144.36ZM168.11 133.336C169.809 133.336 171.161 133.891 172.166 135C173.189 136.092 173.7 137.6 173.7 139.524V148H169.28V140.122C169.28 139.151 169.029 138.397 168.526 137.86C168.024 137.323 167.348 137.054 166.498 137.054C165.649 137.054 164.973 137.323 164.47 137.86C163.968 138.397 163.716 139.151 163.716 140.122V148H159.27V133.492H163.716V135.416C164.167 134.775 164.774 134.272 165.536 133.908C166.299 133.527 167.157 133.336 168.11 133.336Z" fill="black"/>
</svg>
