<svg width="827" height="150" viewBox="0 0 827 150" fill="none" xmlns="http://www.w3.org/2000/svg">
<path d="M79 115.213L100.213 93.9999" stroke="#2F3543" stroke-width="3.5"/>
<circle cx="10" cy="126" r="8.25" stroke="#2F3543" stroke-width="3.5"/>
<path d="M170 83L152.5 72.8964V93.1036L170 83ZM125 84.75H154.25V81.25H125V84.75Z" fill="#2F3543"/>
<path d="M24 126H54" stroke="#2F3543" stroke-width="3.5"/>
<path d="M54 40L36.5 29.8964V50.1036L54 40ZM24 41.75H38.25V38.25H24V41.75Z" fill="#2F3543"/>
<circle cx="151" cy="40" r="8.25" stroke="#2F3543" stroke-width="3.5"/>
<circle cx="10" cy="40" r="8.25" fill="#FFA8A8" stroke="#2F3543" stroke-width="3.5"/>
<path d="M79 51L100.213 72.2132" stroke="#2F3543" stroke-width="3.5"/>
<path d="M82 40H137" stroke="#2F3543" stroke-width="3.5"/>
<circle cx="68" cy="40" r="8.25" stroke="#2F3543" stroke-width="3.5"/>
<circle cx="111" cy="83" r="8.25" fill="#638FFF" stroke="#2F3543" stroke-width="3.5"/>
<circle cx="68" cy="126" r="8.25" stroke="#2F3543" stroke-width="3.5"/>
<circle cx="184" cy="83" r="8.25" stroke="#95B3FF" stroke-width="3.5"/>
<path d="M255.4 40.3C263 40.3 269.567 41.7333 275.1 44.6C280.7 47.4 284.967 51.4333 287.9 56.7C290.9 61.9667 292.4 68.1667 292.4 75.3C292.4 82.4333 290.9 88.6333 287.9 93.9C284.967 99.1 280.7 103.1 275.1 105.9C269.567 108.633 263 110 255.4 110H233.7V40.3H255.4ZM255.4 102.5C264.4 102.5 271.267 100.133 276 95.4C280.733 90.6 283.1 83.9 283.1 75.3C283.1 66.6333 280.7 59.8667 275.9 55C271.167 50.1333 264.333 47.7 255.4 47.7H242.8V102.5H255.4ZM354.403 80.5C354.403 82.2333 354.303 84.0667 354.103 86H310.303C310.636 91.4 312.47 95.6333 315.803 98.7C319.203 101.7 323.303 103.2 328.103 103.2C332.036 103.2 335.303 102.3 337.903 100.5C340.57 98.6333 342.436 96.1667 343.503 93.1H353.303C351.836 98.3667 348.903 102.667 344.503 106C340.103 109.267 334.636 110.9 328.103 110.9C322.903 110.9 318.236 109.733 314.103 107.4C310.036 105.067 306.836 101.767 304.503 97.5C302.17 93.1667 301.003 88.1667 301.003 82.5C301.003 76.8333 302.136 71.8667 304.403 67.6C306.67 63.3333 309.836 60.0667 313.903 57.8C318.036 55.4667 322.77 54.3 328.103 54.3C333.303 54.3 337.903 55.4333 341.903 57.7C345.903 59.9667 348.97 63.1 351.103 67.1C353.303 71.0333 354.403 75.5 354.403 80.5ZM345.003 78.6C345.003 75.1333 344.236 72.1667 342.703 69.7C341.17 67.1667 339.07 65.2667 336.403 64C333.803 62.6667 330.903 62 327.703 62C323.103 62 319.17 63.4667 315.903 66.4C312.703 69.3333 310.87 73.4 310.403 78.6H345.003ZM416.415 80.5C416.415 82.2333 416.315 84.0667 416.115 86H372.315C372.648 91.4 374.482 95.6333 377.815 98.7C381.215 101.7 385.315 103.2 390.115 103.2C394.048 103.2 397.315 102.3 399.915 100.5C402.582 98.6333 404.448 96.1667 405.515 93.1H415.315C413.848 98.3667 410.915 102.667 406.515 106C402.115 109.267 396.648 110.9 390.115 110.9C384.915 110.9 380.248 109.733 376.115 107.4C372.048 105.067 368.848 101.767 366.515 97.5C364.182 93.1667 363.015 88.1667 363.015 82.5C363.015 76.8333 364.148 71.8667 366.415 67.6C368.682 63.3333 371.848 60.0667 375.915 57.8C380.048 55.4667 384.782 54.3 390.115 54.3C395.315 54.3 399.915 55.4333 403.915 57.7C407.915 59.9667 410.982 63.1 413.115 67.1C415.315 71.0333 416.415 75.5 416.415 80.5ZM407.015 78.6C407.015 75.1333 406.248 72.1667 404.715 69.7C403.182 67.1667 401.082 65.2667 398.415 64C395.815 62.6667 392.915 62 389.715 62C385.115 62 381.182 63.4667 377.915 66.4C374.715 69.3333 372.882 73.4 372.415 78.6H407.015ZM437.527 65.3C439.327 62.1667 441.993 59.5667 445.527 57.5C449.127 55.3667 453.293 54.3 458.027 54.3C462.893 54.3 467.293 55.4667 471.227 57.8C475.227 60.1333 478.36 63.4333 480.627 67.7C482.893 71.9 484.027 76.8 484.027 82.4C484.027 87.9333 482.893 92.8667 480.627 97.2C478.36 101.533 475.227 104.9 471.227 107.3C467.293 109.7 462.893 110.9 458.027 110.9C453.36 110.9 449.227 109.867 445.627 107.8C442.093 105.667 439.393 103.033 437.527 99.9V136H428.427V55.2H437.527V65.3ZM474.727 82.4C474.727 78.2667 473.893 74.6667 472.227 71.6C470.56 68.5333 468.293 66.2 465.427 64.6C462.627 63 459.527 62.2 456.127 62.2C452.793 62.2 449.693 63.0333 446.827 64.7C444.027 66.3 441.76 68.6667 440.027 71.8C438.36 74.8667 437.527 78.4333 437.527 82.5C437.527 86.6333 438.36 90.2667 440.027 93.4C441.76 96.4667 444.027 98.8333 446.827 100.5C449.693 102.1 452.793 102.9 456.127 102.9C459.527 102.9 462.627 102.1 465.427 100.5C468.293 98.8333 470.56 96.4667 472.227 93.4C473.893 90.2667 474.727 86.6 474.727 82.4ZM540.205 39.8V53.5H511.605V68.3H533.005V81.6H511.605V110H494.505V39.8H540.205ZM604.292 54.2V110H587.192V102.4C585.459 104.867 583.092 106.867 580.092 108.4C577.159 109.867 573.892 110.6 570.292 110.6C566.026 110.6 562.259 109.667 558.992 107.8C555.726 105.867 553.192 103.1 551.392 99.5C549.592 95.9 548.692 91.6667 548.692 86.8V54.2H565.692V84.5C565.692 88.2333 566.659 91.1333 568.592 93.2C570.526 95.2667 573.126 96.3 576.392 96.3C579.726 96.3 582.359 95.2667 584.292 93.2C586.226 91.1333 587.192 88.2333 587.192 84.5V54.2H604.292ZM639.275 110.8C634.408 110.8 630.075 109.967 626.275 108.3C622.475 106.633 619.475 104.367 617.275 101.5C615.075 98.5667 613.842 95.3 613.575 91.7H630.475C630.675 93.6333 631.575 95.2 633.175 96.4C634.775 97.6 636.742 98.2 639.075 98.2C641.208 98.2 642.842 97.8 643.975 97C645.175 96.1333 645.775 95.0333 645.775 93.7C645.775 92.1 644.942 90.9333 643.275 90.2C641.608 89.4 638.908 88.5333 635.175 87.6C631.175 86.6667 627.842 85.7 625.175 84.7C622.508 83.6333 620.208 82 618.275 79.8C616.342 77.5333 615.375 74.5 615.375 70.7C615.375 67.5 616.242 64.6 617.975 62C619.775 59.3333 622.375 57.2333 625.775 55.7C629.242 54.1667 633.342 53.4 638.075 53.4C645.075 53.4 650.575 55.1333 654.575 58.6C658.642 62.0667 660.975 66.6667 661.575 72.4H645.775C645.508 70.4667 644.642 68.9333 643.175 67.8C641.775 66.6667 639.908 66.1 637.575 66.1C635.575 66.1 634.042 66.5 632.975 67.3C631.908 68.0333 631.375 69.0667 631.375 70.4C631.375 72 632.208 73.2 633.875 74C635.608 74.8 638.275 75.6 641.875 76.4C646.008 77.4667 649.375 78.5333 651.975 79.6C654.575 80.6 656.842 82.2667 658.775 84.6C660.775 86.8667 661.808 89.9333 661.875 93.8C661.875 97.0667 660.942 100 659.075 102.6C657.275 105.133 654.642 107.133 651.175 108.6C647.775 110.067 643.808 110.8 639.275 110.8ZM680.937 48.4C677.937 48.4 675.47 47.5333 673.537 45.8C671.67 44 670.737 41.8 670.737 39.2C670.737 36.5333 671.67 34.3333 673.537 32.6C675.47 30.8 677.937 29.9 680.937 29.9C683.87 29.9 686.27 30.8 688.137 32.6C690.07 34.3333 691.037 36.5333 691.037 39.2C691.037 41.8 690.07 44 688.137 45.8C686.27 47.5333 683.87 48.4 680.937 48.4ZM689.437 54.2V110H672.337V54.2H689.437ZM727.229 110.8C721.762 110.8 716.829 109.633 712.429 107.3C708.096 104.967 704.662 101.633 702.129 97.3C699.662 92.9667 698.429 87.9 698.429 82.1C698.429 76.3667 699.696 71.3333 702.229 67C704.762 62.6 708.229 59.2333 712.629 56.9C717.029 54.5667 721.962 53.4 727.429 53.4C732.896 53.4 737.829 54.5667 742.229 56.9C746.629 59.2333 750.096 62.6 752.629 67C755.162 71.3333 756.429 76.3667 756.429 82.1C756.429 87.8333 755.129 92.9 752.529 97.3C749.996 101.633 746.496 104.967 742.029 107.3C737.629 109.633 732.696 110.8 727.229 110.8ZM727.229 96C730.496 96 733.262 94.8 735.529 92.4C737.862 90 739.029 86.5667 739.029 82.1C739.029 77.6333 737.896 74.2 735.629 71.8C733.429 69.4 730.696 68.2 727.429 68.2C724.096 68.2 721.329 69.4 719.129 71.8C716.929 74.1333 715.829 77.5667 715.829 82.1C715.829 86.5667 716.896 90 719.029 92.4C721.229 94.8 723.962 96 727.229 96ZM799.501 53.6C806.034 53.6 811.234 55.7333 815.101 60C819.034 64.2 821.001 70 821.001 77.4V110H804.001V79.7C804.001 75.9667 803.034 73.0667 801.101 71C799.167 68.9333 796.567 67.9 793.301 67.9C790.034 67.9 787.434 68.9333 785.501 71C783.567 73.0667 782.601 75.9667 782.601 79.7V110H765.501V54.2H782.601V61.6C784.334 59.1333 786.667 57.2 789.601 55.8C792.534 54.3333 795.834 53.6 799.501 53.6Z" fill="black"/>
</svg>
